<svg width="190.41mm" height="19.34mm" viewBox="0 0 190.41 26.34" xmlns="http://www.w3.org/2000/svg"><g id="svgGroup" stroke-linecap="round" fill-rule="evenodd" font-size="9pt" stroke="black" stroke-width="2.35" fill="white" style="stroke:black;stroke-width:2.35;fill:white"><path d="M 103.2 22.118 A 2.518 2.518 0 0 0 103.86 22.2 Q 104.82 22.2 105.555 21.57 A 10.113 10.113 0 0 0 106.095 21.073 A 8.068 8.068 0 0 0 106.8 20.28 A 8.381 8.381 0 0 0 106.823 20.249 Q 107.172 19.779 107.535 19.155 A 22.614 22.614 0 0 0 107.722 18.828 A 25.353 25.353 0 0 0 107.778 18.727 A 1.53 1.53 0 0 0 108.09 19.335 A 1.146 1.146 0 0 0 108.646 19.709 A 1.468 1.468 0 0 0 109.08 19.77 A 1.603 1.603 0 0 0 109.504 19.71 Q 109.743 19.645 109.996 19.508 A 3.61 3.61 0 0 0 110.445 19.215 Q 111.18 18.66 111.9 17.805 A 23.223 23.223 0 0 0 112.169 17.48 A 26.039 26.039 0 0 0 113.31 15.96 Q 114 14.97 114.54 14.13 A 68.944 68.944 0 0 0 114.423 14.729 Q 114.363 15.047 114.298 15.401 A 135.715 135.715 0 0 0 114.135 16.305 A 105.898 105.898 0 0 0 114.08 16.623 A 96.175 96.175 0 0 0 113.73 18.78 A 26.981 26.981 0 0 0 113.697 19.007 Q 113.55 20.047 113.55 20.67 A 1.047 1.047 0 0 0 113.643 20.821 Q 113.727 20.936 113.85 21.044 A 2.115 2.115 0 0 0 114.09 21.225 A 2.143 2.143 0 0 0 114.235 21.312 Q 114.372 21.387 114.5 21.428 A 1.009 1.009 0 0 0 114.81 21.48 Q 115.08 21.48 115.545 20.985 A 5.847 5.847 0 0 0 115.643 20.878 Q 115.856 20.64 116.068 20.352 A 10.09 10.09 0 0 0 116.475 19.755 A 12.317 12.317 0 0 0 116.533 19.663 A 11.199 11.199 0 0 0 117.27 18.27 A 6.462 6.462 0 0 0 117.277 18.255 A 5.224 5.224 0 0 0 117.428 17.87 A 7.402 7.402 0 0 0 117.448 17.832 Q 117.565 17.605 117.687 17.337 A 15.98 15.98 0 0 0 117.93 16.77 Q 118.26 15.96 118.545 15.12 A 178.829 178.829 0 0 0 118.624 14.888 Q 118.86 14.189 119.04 13.635 A 20.705 20.705 0 0 0 119.111 13.413 Q 119.256 12.952 119.28 12.78 A 1.41 1.41 0 0 0 119.285 12.783 Q 119.449 12.885 119.702 12.979 A 4.743 4.743 0 0 0 119.955 13.065 A 4.907 4.907 0 0 0 120.017 13.084 A 5.332 5.332 0 0 0 120.87 13.26 A 53.602 53.602 0 0 1 120.869 13.291 Q 120.839 13.913 120.78 14.835 Q 120.72 15.78 120.72 16.77 Q 120.72 17.857 120.858 18.737 A 7.671 7.671 0 0 0 121.11 19.845 A 2.466 2.466 0 0 0 121.341 20.375 Q 121.562 20.744 121.892 20.922 A 1.487 1.487 0 0 0 122.61 21.09 A 2.026 2.026 0 0 0 123.652 20.804 A 2.697 2.697 0 0 0 124.23 20.34 A 6.416 6.416 0 0 0 124.793 19.665 A 7.82 7.82 0 0 0 125.475 18.525 A 22.97 22.97 0 0 0 125.558 18.356 A 96.474 96.474 0 0 0 125.55 19.53 A 22.237 22.237 0 0 0 125.55 19.534 Q 125.55 20.612 125.61 21.48 A 17.501 17.501 0 0 0 125.616 21.559 Q 125.656 22.107 125.721 22.506 A 5.195 5.195 0 0 0 125.79 22.86 A 2.989 2.989 0 0 0 125.88 23.131 A 2.386 2.386 0 0 0 126.525 24.075 A 4.995 4.995 0 0 0 126.527 24.077 Q 127.051 24.54 127.35 24.54 A 0.309 0.309 0 0 0 127.428 24.531 Q 127.56 24.497 127.56 24.33 Q 127.56 24.265 127.537 24.162 A 1.991 1.991 0 0 0 127.515 24.075 A 0.864 0.864 0 0 1 127.496 23.98 Q 127.479 23.869 127.473 23.701 A 5.395 5.395 0 0 1 127.47 23.52 A 10.099 10.099 0 0 1 127.475 23.225 Q 127.496 22.484 127.62 21.285 A 34.505 34.505 0 0 1 127.641 21.09 Q 127.791 19.709 128.085 18.015 Q 128.4 16.2 128.91 14.34 Q 128.949 14.148 129.018 14.029 A 0.446 0.446 0 0 1 129.105 13.92 Q 129.24 13.8 129.3 13.8 Q 129.36 13.8 129.54 14.28 A 28.286 28.286 0 0 1 129.558 14.328 Q 129.687 14.673 129.852 15.143 A 83.429 83.429 0 0 1 129.975 15.495 A 73.222 73.222 0 0 0 130.241 16.249 A 85.66 85.66 0 0 0 130.53 17.04 A 15.577 15.577 0 0 0 130.761 17.629 A 12.807 12.807 0 0 0 131.175 18.525 Q 131.516 19.192 131.872 19.493 A 1.487 1.487 0 0 0 131.88 19.5 A 3.464 3.464 0 0 0 132.018 19.614 Q 132.639 20.1 133.26 20.1 A 1.439 1.439 0 0 0 134.323 19.658 A 2.17 2.17 0 0 0 134.67 19.185 Q 135.18 18.27 135.93 16.59 A 4.099 4.099 0 0 0 135.933 16.581 Q 136.02 16.318 136.02 16.2 Q 136.02 16.05 135.93 16.05 A 0.168 0.168 0 0 0 135.86 16.067 Q 135.698 16.141 135.465 16.545 A 40.178 40.178 0 0 0 135.383 16.687 Q 135.259 16.906 135.121 17.154 A 72.946 72.946 0 0 0 134.82 17.7 A 9.558 9.558 0 0 1 134.496 18.251 A 7.33 7.33 0 0 1 134.07 18.855 Q 133.851 19.133 133.631 19.255 A 0.698 0.698 0 0 1 133.29 19.35 A 0.319 0.319 0 0 1 133.196 19.335 Q 132.894 19.243 132.48 18.57 A 3.469 3.469 0 0 1 132.322 18.281 Q 131.939 17.502 131.64 16.08 A 16.802 16.802 0 0 1 131.48 15.21 A 13.492 13.492 0 0 1 131.34 13.935 A 144.277 144.277 0 0 0 131.323 13.657 Q 131.272 12.82 131.22 12.15 A 5.73 5.73 0 0 0 131.166 11.684 Q 131.132 11.468 131.082 11.286 A 2.317 2.317 0 0 0 130.95 10.92 A 1.001 1.001 0 0 0 130.945 10.91 Q 130.799 10.606 130.499 10.512 A 0.999 0.999 0 0 0 130.2 10.47 A 0.791 0.791 0 0 0 129.744 10.612 A 1.068 1.068 0 0 0 129.525 10.815 A 1.462 1.462 0 0 0 129.416 10.967 Q 129.191 11.325 128.985 12.015 A 19.291 19.291 0 0 0 128.892 12.337 Q 128.735 12.899 128.544 13.694 A 76.777 76.777 0 0 0 128.37 14.43 A 88.865 88.865 0 0 1 127.92 16.159 A 69.878 69.878 0 0 1 127.47 17.745 A 16.498 16.498 0 0 0 127.362 18.126 A 18.118 18.118 0 0 0 126.84 20.94 L 126.84 20.67 Q 126.84 20.484 126.835 20.266 A 28.274 28.274 0 0 0 126.825 19.905 A 20.583 20.583 0 0 1 126.821 19.78 Q 126.816 19.588 126.813 19.373 A 36.903 36.903 0 0 1 126.81 18.9 A 36.144 36.144 0 0 1 126.829 17.729 A 31.513 31.513 0 0 1 127.11 14.385 A 78.013 78.013 0 0 1 127.301 13.099 Q 127.397 12.482 127.497 11.921 A 44.422 44.422 0 0 1 127.74 10.65 A 0.238 0.238 0 0 0 127.751 10.625 Q 127.761 10.597 127.766 10.563 A 0.448 0.448 0 0 0 127.77 10.5 L 127.77 10.35 A 0.543 0.543 0 0 0 127.768 10.297 Q 127.75 10.122 127.621 9.905 A 2.154 2.154 0 0 0 127.485 9.705 A 0.684 0.684 0 0 0 127.326 9.555 Q 127.097 9.398 126.688 9.351 A 3.374 3.374 0 0 0 126.3 9.33 Q 125.729 9.33 125.332 9.427 A 1.855 1.855 0 0 0 124.965 9.555 Q 124.5 9.78 124.5 9.84 L 124.755 9.885 Q 125.01 9.93 125.295 9.975 A 2.847 2.847 0 0 1 125.368 9.987 Q 125.529 10.017 125.6 10.053 A 0.156 0.156 0 0 1 125.64 10.08 Q 125.67 10.44 125.685 10.92 Q 125.7 11.4 125.7 11.94 A 73.394 73.394 0 0 1 125.7 12.047 Q 125.698 13.657 125.625 15.66 A 119.072 119.072 0 0 0 125.581 17.118 A 32.918 32.918 0 0 1 125.579 17.122 Q 125.406 17.453 125.16 17.91 A 2.111 2.111 0 0 1 125.145 17.945 Q 125.05 18.156 124.815 18.57 Q 124.56 19.02 124.23 19.41 Q 123.9 19.8 123.54 19.8 A 0.436 0.436 0 0 1 123.402 19.778 Q 123.207 19.713 123.046 19.459 A 1.819 1.819 0 0 1 122.925 19.23 A 3.484 3.484 0 0 1 122.781 18.844 Q 122.707 18.605 122.649 18.32 A 8.222 8.222 0 0 1 122.55 17.715 Q 122.43 16.77 122.43 15.69 Q 122.43 14.46 122.58 13.245 Q 122.73 12.03 123.03 11.28 L 123.03 11.19 Q 123.03 11.052 122.889 10.976 A 0.557 0.557 0 0 0 122.79 10.935 Q 122.651 10.892 122.483 10.873 A 2.44 2.44 0 0 0 122.22 10.86 A 1.9 1.9 0 0 0 121.964 10.877 A 1.392 1.392 0 0 0 121.185 11.235 A 6.729 6.729 0 0 0 120.854 11.563 A 5.299 5.299 0 0 0 120.495 11.985 A 1.463 1.463 0 0 1 120.348 12.153 Q 120.264 12.234 120.179 12.283 A 0.531 0.531 0 0 1 119.91 12.36 Q 119.7 12.36 119.52 12.24 L 119.34 12.12 Q 119.453 11.828 119.599 11.392 A 36.238 36.238 0 0 0 119.7 11.085 A 19.015 19.015 0 0 0 119.752 10.924 A 17.14 17.14 0 0 0 120.06 9.825 Q 120.169 9.378 120.199 9.098 A 1.798 1.798 0 0 0 120.21 8.91 Q 120.21 8.31 119.85 8.31 A 0.269 0.269 0 0 0 119.833 8.311 Q 119.625 8.324 119.25 8.655 Q 118.994 8.881 118.771 9.256 A 4.476 4.476 0 0 0 118.545 9.69 A 2.899 2.899 0 0 0 118.403 10.076 Q 118.314 10.377 118.271 10.734 A 6.083 6.083 0 0 0 118.23 11.46 A 2.067 2.067 0 0 0 118.243 11.696 A 1.667 1.667 0 0 0 118.365 12.165 A 1.008 1.008 0 0 0 118.376 12.189 Q 118.511 12.482 118.795 12.598 A 0.855 0.855 0 0 0 118.8 12.6 Q 118.41 13.98 117.93 15.27 Q 117.45 16.56 116.85 17.79 A 3.582 3.582 0 0 0 116.787 17.924 A 2.422 2.422 0 0 0 116.721 18.082 A 162.466 162.466 0 0 0 116.52 18.45 A 11.916 11.916 0 0 1 116.202 18.999 A 9.208 9.208 0 0 1 115.785 19.62 A 3.82 3.82 0 0 1 115.734 19.688 Q 115.394 20.13 115.17 20.13 A 0.054 0.054 0 0 1 115.125 20.101 Q 115.091 20.049 115.083 19.904 A 1.846 1.846 0 0 1 115.08 19.8 A 4.793 4.793 0 0 1 115.084 19.618 Q 115.101 19.162 115.2 18.42 Q 115.32 17.52 115.515 16.455 Q 115.71 15.39 115.935 14.385 A 39.06 39.06 0 0 1 116.074 13.785 Q 116.226 13.155 116.37 12.66 Q 116.469 12.578 116.513 12.495 A 0.282 0.282 0 0 0 116.55 12.36 A 0.282 0.282 0 0 0 116.525 12.243 A 0.314 0.314 0 0 0 116.46 12.15 Q 116.249 11.911 116.028 11.734 A 2.444 2.444 0 0 0 115.515 11.415 Q 115.02 11.19 114.48 11.19 A 2.455 2.455 0 0 0 113.914 11.262 Q 113.647 11.326 113.348 11.445 A 6.378 6.378 0 0 0 112.74 11.73 Q 111.72 12.27 110.685 13.2 Q 109.65 14.13 108.855 15.345 A 7.243 7.243 0 0 0 107.959 17.26 A 12.69 12.69 0 0 1 107.881 17.407 A 19.138 19.138 0 0 1 107.625 17.865 A 13.574 13.574 0 0 1 107.619 17.876 A 14.511 14.511 0 0 1 106.71 19.26 A 6.588 6.588 0 0 1 106.313 19.748 A 5.222 5.222 0 0 1 105.615 20.4 A 2.475 2.475 0 0 1 105.264 20.628 A 1.827 1.827 0 0 1 104.4 20.85 Q 103.855 20.85 103.55 20.333 A 2.001 2.001 0 0 1 103.38 19.95 A 4.846 4.846 0 0 1 103.339 19.822 Q 103.202 19.369 103.138 18.843 A 8.152 8.152 0 0 1 103.08 17.85 Q 103.08 17.13 103.17 16.41 A 13.38 13.38 0 0 0 103.201 16.396 A 14.481 14.481 0 0 0 105.12 15.33 A 8.402 8.402 0 0 0 105.846 14.798 A 6.578 6.578 0 0 0 106.71 13.95 A 3.777 3.777 0 0 0 106.811 13.825 Q 107.02 13.553 107.146 13.282 A 1.955 1.955 0 0 0 107.34 12.45 Q 107.34 12.06 106.905 11.73 A 3.686 3.686 0 0 0 106.775 11.636 Q 106.375 11.359 105.81 11.115 Q 105.15 10.83 104.46 10.62 Q 104.325 10.418 104.055 10.122 A 10.489 10.489 0 0 0 103.86 9.915 Q 103.591 9.636 103.359 9.536 A 0.628 0.628 0 0 0 103.11 9.48 A 0.392 0.392 0 0 0 102.845 9.574 Q 102.778 9.632 102.728 9.726 A 0.91 0.91 0 0 0 102.66 9.9 A 10.088 10.088 0 0 1 102.633 10.007 Q 102.579 10.213 102.466 10.623 A 172.742 172.742 0 0 1 102.375 10.95 A 21.822 21.822 0 0 0 102.269 11.348 Q 102.094 12.027 101.91 12.9 A 25.753 25.753 0 0 0 101.852 13.186 A 28.222 28.222 0 0 0 101.52 15.27 Q 101.46 15.75 101.4 16.395 Q 101.34 17.04 101.34 17.76 Q 101.34 18.81 101.535 19.845 A 4.428 4.428 0 0 0 101.756 20.631 A 3.202 3.202 0 0 0 102.285 21.54 A 1.771 1.771 0 0 0 103.2 22.118 Z M 147.03 3.81 L 147.03 3.84 A 9.561 9.561 0 0 0 146.327 5.307 A 13.146 13.146 0 0 0 145.845 6.855 A 22.456 22.456 0 0 0 145.375 9.395 A 26.8 26.8 0 0 0 145.245 10.635 Q 145.08 12.66 145.08 14.76 Q 145.08 15.93 145.125 17.07 Q 145.17 18.21 145.23 19.29 A 20.277 20.277 0 0 1 145.302 18.672 Q 145.4 17.931 145.575 16.92 Q 145.83 15.45 146.175 13.755 Q 146.52 12.06 146.88 10.365 Q 147.24 8.67 147.57 7.29 Q 147.823 6.233 147.988 5.529 A 147.53 147.53 0 0 0 148.08 5.13 A 59.349 59.349 0 0 1 148.284 4.325 Q 148.51 3.457 148.701 2.851 A 14.429 14.429 0 0 1 148.815 2.505 A 13.011 13.011 0 0 1 148.968 2.083 Q 149.114 1.703 149.241 1.461 A 2.078 2.078 0 0 1 149.37 1.245 Q 149.61 0.9 149.76 0.9 A 0.033 0.033 0 0 1 149.773 0.904 Q 149.824 0.931 150.053 1.118 A 17.403 17.403 0 0 1 150.135 1.185 A 4.073 4.073 0 0 1 150.519 1.548 A 5.322 5.322 0 0 1 150.81 1.89 A 1.69 1.69 0 0 1 151.027 2.243 A 1.255 1.255 0 0 1 151.14 2.76 A 0.155 0.155 0 0 1 151.138 2.782 Q 151.135 2.805 151.125 2.835 Q 151.11 2.88 151.11 2.94 Q 151.081 3.173 150.996 4.026 A 261.623 261.623 0 0 0 150.99 4.08 A 58.519 58.519 0 0 0 150.923 4.804 Q 150.866 5.447 150.81 6.225 Q 150.72 7.47 150.66 8.745 A 60.138 60.138 0 0 0 150.619 9.806 Q 150.605 10.291 150.601 10.726 A 34.696 34.696 0 0 0 150.6 11.01 A 26.811 26.811 0 0 0 150.611 11.736 Q 150.619 12.059 150.636 12.418 A 51.87 51.87 0 0 0 150.675 13.17 Q 150.75 14.43 150.9 15.72 A 47.498 47.498 0 0 0 151.052 16.906 Q 151.137 17.504 151.23 18.03 Q 151.369 18.815 151.507 19.244 A 2.614 2.614 0 0 0 151.59 19.47 Q 151.59 19.302 151.735 18.621 A 29.91 29.91 0 0 1 151.755 18.525 A 62.2 62.2 0 0 1 151.844 18.119 Q 151.988 17.475 152.19 16.62 A 1336.777 1336.777 0 0 1 152.471 15.435 A 1666.717 1666.717 0 0 1 152.775 14.16 Q 153.09 12.84 153.405 11.58 Q 153.699 10.404 153.928 9.463 A 229.75 229.75 0 0 0 153.96 9.33 Q 154.144 8.572 154.257 8.095 A 109.258 109.258 0 0 0 154.32 7.83 Q 154.539 6.907 154.738 6.377 A 4.185 4.185 0 0 1 154.83 6.15 Q 155.07 5.61 155.46 5.61 A 1.104 1.104 0 0 1 156.059 5.793 Q 156.229 5.901 156.392 6.072 A 2.687 2.687 0 0 1 156.585 6.3 A 2.572 2.572 0 0 1 157.108 7.79 A 3.208 3.208 0 0 1 157.11 7.92 Q 157.11 8.22 157.095 8.535 Q 157.08 8.85 157.08 9.18 A 27.794 27.794 0 0 0 157.11 10.44 A 36.719 36.719 0 0 0 157.2 11.82 A 37.465 37.465 0 0 0 157.431 13.904 A 32.764 32.764 0 0 0 157.53 14.565 A 16.342 16.342 0 0 0 157.695 15.443 Q 157.853 16.172 158.055 16.71 A 3.37 3.37 0 0 0 158.186 17.017 Q 158.449 17.55 158.76 17.55 Q 159.27 17.55 160.17 15.9 A 4.467 4.467 0 0 0 160.301 15.656 Q 160.426 15.407 160.573 15.058 A 17.237 17.237 0 0 0 160.665 14.835 Q 160.95 14.13 161.22 13.56 Q 161.49 12.99 161.58 12.99 Q 161.669 12.99 161.67 13.342 A 2.852 2.852 0 0 1 161.67 13.35 Q 161.67 13.63 161.577 14.003 A 5.168 5.168 0 0 1 161.49 14.31 Q 161.31 14.88 161.085 15.405 A 137.214 137.214 0 0 1 160.979 15.652 Q 160.877 15.889 160.802 16.059 A 31.208 31.208 0 0 1 160.74 16.2 A 17.802 17.802 0 0 1 160.245 17.113 Q 159.758 17.945 159.315 18.443 A 3.924 3.924 0 0 1 159.075 18.69 Q 158.397 19.329 157.848 19.401 A 1.055 1.055 0 0 1 157.71 19.41 Q 157.155 19.41 156.677 18.896 A 2.564 2.564 0 0 1 156.6 18.81 A 1.926 1.926 0 0 1 156.37 18.47 Q 156.166 18.098 156.009 17.521 A 7.901 7.901 0 0 1 155.955 17.31 A 20.879 20.879 0 0 1 155.719 16.2 A 27.631 27.631 0 0 1 155.52 14.97 A 102.462 102.462 0 0 1 155.275 13.094 A 89.686 89.686 0 0 1 155.205 12.495 A 80.723 80.723 0 0 0 155.139 11.928 Q 155.047 11.169 154.962 10.609 A 27.658 27.658 0 0 0 154.95 10.53 A 6.46 6.46 0 0 0 154.908 10.285 Q 154.817 9.817 154.711 9.758 A 0.063 0.063 0 0 0 154.68 9.75 A 0.082 0.082 0 0 0 154.624 9.785 Q 154.514 9.91 154.35 10.485 Q 154.209 10.979 154.054 11.676 A 40.403 40.403 0 0 0 153.9 12.405 A 67.87 67.87 0 0 0 153.664 13.631 A 81.73 81.73 0 0 0 153.435 14.94 Q 153.21 16.29 153.015 17.55 A 162.91 162.91 0 0 0 152.879 18.442 Q 152.827 18.792 152.782 19.105 A 80.834 80.834 0 0 0 152.7 19.695 A 39.893 39.893 0 0 0 152.659 20.004 Q 152.583 20.602 152.58 20.805 A 1.083 1.083 0 0 0 152.58 20.82 A 1.53 1.53 0 0 1 152.557 21.097 Q 152.529 21.247 152.469 21.361 A 0.625 0.625 0 0 1 152.25 21.6 A 1.237 1.237 0 0 1 151.898 21.75 Q 151.741 21.791 151.555 21.804 A 2.519 2.519 0 0 1 151.38 21.81 L 151.11 21.81 Q 150.96 21.81 150.81 21.78 A 0.436 0.436 0 0 1 150.552 21.659 Q 150.281 21.418 150.045 20.7 A 12.782 12.782 0 0 1 149.805 19.866 Q 149.701 19.459 149.604 18.989 A 29.411 29.411 0 0 1 149.415 17.985 Q 149.13 16.32 148.935 14.385 Q 148.74 12.45 148.62 10.575 A 202.558 202.558 0 0 1 148.539 9.234 Q 148.478 8.171 148.44 7.29 Q 147.81 9.12 147.3 11.265 Q 146.79 13.41 146.445 15.57 A 74.493 74.493 0 0 0 146.042 18.441 A 63.108 63.108 0 0 0 145.905 19.68 Q 145.748 21.249 145.718 22.507 A 24.352 24.352 0 0 0 145.71 23.1 A 3.082 3.082 0 0 0 145.711 23.184 Q 145.715 23.313 145.73 23.371 A 0.15 0.15 0 0 0 145.74 23.4 Q 145.74 23.43 145.623 23.43 A 0.919 0.919 0 0 1 145.62 23.43 Q 145.44 23.43 144.99 23.295 Q 144.54 23.16 144.15 22.92 A 1.486 1.486 0 0 1 143.957 22.78 Q 143.743 22.596 143.7 22.38 A 16.624 16.624 0 0 1 143.583 21.538 Q 143.534 21.106 143.498 20.623 A 28.882 28.882 0 0 1 143.475 20.295 A 37.435 37.435 0 0 1 143.411 18.749 A 45.338 45.338 0 0 1 143.4 17.76 Q 143.4 15.69 143.55 13.47 A 97.406 97.406 0 0 1 143.792 10.531 A 82.464 82.464 0 0 1 143.925 9.27 A 53.52 53.52 0 0 1 144.093 7.936 Q 144.17 7.381 144.252 6.897 A 23.65 23.65 0 0 1 144.42 6 Q 144.15 6.27 143.82 6.585 A 5.201 5.201 0 0 1 143.705 6.692 Q 143.482 6.892 143.406 6.9 A 0.058 0.058 0 0 1 143.4 6.9 Q 143.31 6.9 143.31 6.75 A 0.364 0.364 0 0 1 143.323 6.669 Q 143.37 6.472 143.602 5.972 A 15.498 15.498 0 0 1 143.61 5.955 Q 143.91 5.31 144.33 4.545 Q 144.75 3.78 145.08 3.21 Q 145.361 2.724 145.468 2.652 A 0.06 0.06 0 0 1 145.5 2.64 Q 145.637 2.64 145.879 2.753 A 3.113 3.113 0 0 1 146.04 2.835 Q 146.4 3.03 146.715 3.3 Q 146.993 3.538 147.026 3.753 A 0.378 0.378 0 0 1 147.03 3.81 Z M 165.66 12.33 L 166.11 11.43 Q 166.29 11.1 166.53 10.965 Q 166.77 10.83 166.98 10.83 Q 167.31 10.83 167.565 10.935 Q 167.82 11.04 168.03 11.19 A 9.066 9.066 0 0 1 168.55 10.973 A 10.448 10.448 0 0 1 168.735 10.905 A 4.36 4.36 0 0 1 169.289 10.745 A 3.834 3.834 0 0 1 169.47 10.71 Q 170.61 10.29 171.84 10.035 Q 173.07 9.78 174.27 9.78 A 5.236 5.236 0 0 1 175.405 9.908 A 5.96 5.96 0 0 1 175.508 9.932 A 2.899 2.899 0 0 1 175.605 9.69 A 4.476 4.476 0 0 1 175.831 9.256 Q 176.054 8.881 176.31 8.655 Q 176.685 8.324 176.893 8.311 A 0.269 0.269 0 0 1 176.91 8.31 Q 177.27 8.31 177.27 8.91 A 1.798 1.798 0 0 1 177.259 9.098 Q 177.229 9.378 177.12 9.825 A 17.14 17.14 0 0 1 176.812 10.924 A 19.015 19.015 0 0 1 176.76 11.085 A 36.238 36.238 0 0 1 176.659 11.392 Q 176.513 11.828 176.4 12.12 L 176.58 12.24 Q 176.76 12.36 176.97 12.36 A 0.531 0.531 0 0 0 177.239 12.283 Q 177.324 12.234 177.408 12.153 A 1.463 1.463 0 0 0 177.555 11.985 A 5.299 5.299 0 0 1 177.914 11.563 A 6.729 6.729 0 0 1 178.245 11.235 A 1.392 1.392 0 0 1 179.024 10.877 A 1.9 1.9 0 0 1 179.28 10.86 A 2.44 2.44 0 0 1 179.543 10.873 Q 179.711 10.892 179.85 10.935 A 0.557 0.557 0 0 1 179.949 10.976 Q 180.09 11.052 180.09 11.19 L 180.09 11.28 Q 179.79 12.03 179.64 13.245 Q 179.49 14.46 179.49 15.69 Q 179.49 16.77 179.61 17.715 A 8.222 8.222 0 0 0 179.709 18.32 Q 179.767 18.605 179.841 18.844 A 3.484 3.484 0 0 0 179.985 19.23 A 1.819 1.819 0 0 0 180.106 19.459 Q 180.267 19.713 180.462 19.778 A 0.436 0.436 0 0 0 180.6 19.8 Q 180.96 19.8 181.29 19.41 Q 181.62 19.02 181.875 18.57 Q 182.11 18.156 182.205 17.945 A 2.111 2.111 0 0 0 182.22 17.91 Q 182.85 16.74 183 16.395 Q 183.075 16.223 183.172 16.137 A 0.321 0.321 0 0 1 183.208 16.108 A 47.419 47.419 0 0 1 183.225 15.934 Q 183.263 15.57 183.3 15.27 A 28.222 28.222 0 0 1 183.632 13.186 A 25.753 25.753 0 0 1 183.69 12.9 Q 183.874 12.027 184.049 11.348 A 21.822 21.822 0 0 1 184.155 10.95 A 172.742 172.742 0 0 0 184.246 10.623 Q 184.359 10.213 184.413 10.007 A 10.088 10.088 0 0 0 184.44 9.9 A 0.91 0.91 0 0 1 184.508 9.726 Q 184.558 9.632 184.625 9.574 A 0.392 0.392 0 0 1 184.89 9.48 A 0.628 0.628 0 0 1 185.139 9.536 Q 185.371 9.636 185.64 9.915 A 10.489 10.489 0 0 1 185.835 10.122 Q 186.105 10.418 186.24 10.62 Q 186.93 10.83 187.59 11.115 Q 188.155 11.359 188.555 11.636 A 3.686 3.686 0 0 1 188.685 11.73 Q 189.12 12.06 189.12 12.45 A 1.955 1.955 0 0 1 188.926 13.282 Q 188.8 13.553 188.591 13.825 A 3.777 3.777 0 0 1 188.49 13.95 A 6.578 6.578 0 0 1 187.626 14.798 A 8.402 8.402 0 0 1 186.9 15.33 A 14.481 14.481 0 0 1 184.981 16.396 A 13.38 13.38 0 0 1 184.95 16.41 Q 184.86 17.13 184.86 17.85 A 8.152 8.152 0 0 0 184.918 18.843 Q 184.982 19.369 185.119 19.822 A 4.846 4.846 0 0 0 185.16 19.95 A 2.001 2.001 0 0 0 185.33 20.333 Q 185.635 20.85 186.18 20.85 A 1.827 1.827 0 0 0 187.044 20.628 A 2.475 2.475 0 0 0 187.395 20.4 A 5.222 5.222 0 0 0 188.093 19.748 A 6.588 6.588 0 0 0 188.49 19.26 A 14.511 14.511 0 0 0 189.399 17.876 A 13.574 13.574 0 0 0 189.405 17.865 A 19.138 19.138 0 0 0 189.661 17.407 Q 189.882 16.995 190.02 16.68 Q 190.08 16.5 190.29 16.5 A 0.093 0.093 0 0 1 190.376 16.556 Q 190.401 16.602 190.408 16.686 A 0.864 0.864 0 0 1 190.41 16.755 Q 190.41 16.966 190.164 17.535 A 11.336 11.336 0 0 1 190.05 17.79 A 25.353 25.353 0 0 1 189.502 18.828 A 22.614 22.614 0 0 1 189.315 19.155 Q 188.952 19.779 188.603 20.249 A 8.381 8.381 0 0 1 188.58 20.28 A 8.068 8.068 0 0 1 187.875 21.073 A 10.113 10.113 0 0 1 187.335 21.57 Q 186.6 22.2 185.64 22.2 A 2.518 2.518 0 0 1 184.98 22.118 A 1.771 1.771 0 0 1 184.065 21.54 A 3.202 3.202 0 0 1 183.536 20.631 A 4.428 4.428 0 0 1 183.315 19.845 Q 183.12 18.81 183.12 17.76 A 15.508 15.508 0 0 1 183.129 17.218 A 19.195 19.195 0 0 1 182.906 17.737 A 22.97 22.97 0 0 1 182.535 18.525 A 7.82 7.82 0 0 1 181.853 19.665 A 6.416 6.416 0 0 1 181.29 20.34 A 2.697 2.697 0 0 1 180.712 20.804 A 2.026 2.026 0 0 1 179.67 21.09 A 1.487 1.487 0 0 1 178.952 20.922 Q 178.622 20.744 178.401 20.375 A 2.466 2.466 0 0 1 178.17 19.845 A 7.671 7.671 0 0 1 177.918 18.737 Q 177.78 17.857 177.78 16.77 Q 177.78 15.78 177.84 14.835 Q 177.899 13.913 177.929 13.291 A 53.602 53.602 0 0 0 177.93 13.26 A 5.332 5.332 0 0 1 177.077 13.084 A 4.907 4.907 0 0 1 177.015 13.065 A 4.743 4.743 0 0 1 176.762 12.979 Q 176.509 12.885 176.345 12.783 A 1.41 1.41 0 0 1 176.34 12.78 Q 176.316 12.952 176.171 13.413 A 20.705 20.705 0 0 1 176.1 13.635 Q 175.92 14.189 175.684 14.888 A 178.829 178.829 0 0 1 175.605 15.12 Q 175.32 15.96 174.99 16.77 A 15.98 15.98 0 0 1 174.747 17.337 Q 174.625 17.605 174.508 17.832 A 7.402 7.402 0 0 1 174.36 18.105 Q 174.084 18.588 173.859 18.627 A 0.229 0.229 0 0 1 173.82 18.63 A 0.11 0.11 0 0 1 173.757 18.613 Q 173.714 18.584 173.704 18.506 A 0.416 0.416 0 0 1 173.7 18.45 A 0.768 0.768 0 0 1 173.719 18.292 Q 173.762 18.085 173.91 17.79 Q 174.51 16.56 174.99 15.27 Q 175.47 13.98 175.86 12.6 A 0.855 0.855 0 0 1 175.855 12.598 Q 175.571 12.482 175.436 12.189 A 1.008 1.008 0 0 1 175.425 12.165 A 1.667 1.667 0 0 1 175.303 11.696 A 2.067 2.067 0 0 1 175.29 11.46 A 6.083 6.083 0 0 1 175.331 10.734 A 4.047 4.047 0 0 1 175.349 10.594 A 6.524 6.524 0 0 1 175.145 10.561 A 8.103 8.103 0 0 1 174.975 10.53 Q 174.36 10.41 173.76 10.41 A 13.623 13.623 0 0 0 172.581 10.46 A 12.14 12.14 0 0 0 172.32 10.485 A 10.189 10.189 0 0 0 171.453 10.616 A 8.572 8.572 0 0 0 171.03 10.71 A 1.67 1.67 0 0 1 171.655 11.19 A 2.178 2.178 0 0 1 171.825 11.43 A 1.999 1.999 0 0 1 172.066 12.028 Q 172.14 12.342 172.14 12.72 A 4.359 4.359 0 0 1 172.083 13.396 Q 172.03 13.735 171.926 14.115 A 9.606 9.606 0 0 1 171.735 14.73 A 14.662 14.662 0 0 1 171.087 16.291 A 17.72 17.72 0 0 1 170.655 17.13 Q 169.98 18.36 169.11 19.425 A 10.767 10.767 0 0 1 168.225 20.389 A 8.109 8.109 0 0 1 167.31 21.15 A 4.233 4.233 0 0 1 166.649 21.539 Q 166.067 21.81 165.51 21.81 A 2.609 2.609 0 0 1 164.891 21.741 A 1.632 1.632 0 0 1 163.92 21.105 Q 163.41 20.4 163.41 19.38 A 5.857 5.857 0 0 1 163.48 18.512 Q 163.547 18.067 163.678 17.562 A 13.709 13.709 0 0 1 163.92 16.74 A 42.944 42.944 0 0 1 164.715 14.512 A 37.242 37.242 0 0 1 165 13.8 Q 164.49 14.13 163.95 14.4 Q 163.56 14.595 163.232 14.649 A 1.486 1.486 0 0 1 162.99 14.67 A 0.951 0.951 0 0 1 162.834 14.658 Q 162.752 14.644 162.687 14.615 A 0.394 0.394 0 0 1 162.555 14.52 A 0.556 0.556 0 0 1 162.463 14.383 A 0.452 0.452 0 0 1 162.42 14.19 Q 162.42 14.04 162.51 13.74 A 1.539 1.539 0 0 1 162.715 13.316 A 1.876 1.876 0 0 1 162.825 13.17 A 0.786 0.786 0 0 1 163.032 12.991 A 0.678 0.678 0 0 1 163.38 12.9 A 0.235 0.235 0 0 1 163.424 12.904 Q 163.5 12.918 163.5 12.99 Q 163.5 13.01 163.493 13.023 A 0.044 0.044 0 0 1 163.485 13.035 A 0.047 0.047 0 0 0 163.474 13.054 Q 163.471 13.061 163.471 13.07 A 0.105 0.105 0 0 0 163.47 13.08 Q 163.44 13.14 163.44 13.2 Q 163.44 13.308 163.562 13.319 A 0.323 0.323 0 0 0 163.59 13.32 A 0.701 0.701 0 0 0 163.661 13.316 Q 163.695 13.313 163.733 13.306 A 1.636 1.636 0 0 0 163.815 13.29 Q 163.95 13.26 164.1 13.17 A 10.088 10.088 0 0 0 164.338 13.047 Q 164.546 12.936 164.79 12.795 Q 165.18 12.57 165.66 12.33 Z M 5.289 26.176 A 12.412 12.412 0 0 0 7.38 26.34 Q 10.14 26.34 13.83 25.26 A 54.707 54.707 0 0 0 14.757 24.986 Q 16.12 24.571 17.321 24.123 A 31.695 31.695 0 0 0 19.635 23.16 A 32.716 32.716 0 0 0 21.789 22.062 A 24.375 24.375 0 0 0 23.895 20.745 A 29.188 29.188 0 0 0 25.195 19.778 A 23.673 23.673 0 0 0 27.09 18.12 A 0.597 0.597 0 0 0 27.128 18.079 Q 27.21 17.979 27.21 17.88 Q 27.21 17.787 27.138 17.766 A 0.173 0.173 0 0 0 27.09 17.76 A 0.314 0.314 0 0 0 26.991 17.776 Q 26.936 17.795 26.882 17.833 A 0.676 0.676 0 0 0 26.79 17.91 Q 25.8 18.63 24.075 19.485 Q 22.35 20.34 20.175 21.165 A 55.706 55.706 0 0 1 19.902 21.268 A 60.831 60.831 0 0 1 15.63 22.68 Q 13.26 23.37 10.95 23.79 Q 8.64 24.21 6.66 24.21 A 13.525 13.525 0 0 1 5.421 24.156 Q 4.563 24.077 3.84 23.882 A 6.127 6.127 0 0 1 2.355 23.28 A 3.051 3.051 0 0 1 0.888 21.29 A 5.039 5.039 0 0 1 0.75 20.07 A 8.143 8.143 0 0 1 0.902 18.525 A 10.136 10.136 0 0 1 1.44 16.71 A 14.225 14.225 0 0 1 2.034 15.411 A 16.794 16.794 0 0 1 3.36 13.275 Q 4.59 11.58 6.21 10.08 Q 7.83 8.58 9.675 7.425 A 20.098 20.098 0 0 1 9.935 7.265 A 18.049 18.049 0 0 1 13.455 5.61 A 13.321 13.321 0 0 1 14.298 5.353 A 11.341 11.341 0 0 1 17.25 4.95 A 3.827 3.827 0 0 1 17.401 4.953 Q 17.653 4.963 17.826 5.007 A 0.877 0.877 0 0 1 18 5.07 A 32.867 32.867 0 0 0 17.531 5.614 A 44.415 44.415 0 0 0 17.025 6.225 A 85.646 85.646 0 0 0 16.895 6.386 A 77.889 77.889 0 0 0 16.02 7.485 A 93.425 93.425 0 0 0 15.973 7.546 Q 15.643 7.969 15.401 8.289 A 31.522 31.522 0 0 0 15.24 8.505 L 14.94 8.91 A 0.088 0.088 0 0 0 14.943 8.932 Q 14.95 8.959 14.976 8.967 A 0.086 0.086 0 0 0 15 8.97 Q 15.146 8.97 15.61 8.673 A 9.905 9.905 0 0 0 15.84 8.52 A 5.504 5.504 0 0 0 15.921 8.465 Q 16.131 8.319 16.526 8.025 A 70.132 70.132 0 0 0 16.845 7.785 A 21.936 21.936 0 0 0 17.503 7.268 A 28.019 28.019 0 0 0 18.39 6.51 A 18.001 18.001 0 0 0 19.059 5.886 A 13.954 13.954 0 0 0 19.8 5.1 Q 20.4 4.41 20.4 3.99 A 0.362 0.362 0 0 0 20.284 3.714 A 0.519 0.519 0 0 0 20.16 3.63 Q 20.46 3.39 20.775 2.745 A 19.458 19.458 0 0 0 21.034 2.195 A 15.361 15.361 0 0 0 21.315 1.53 A 15.398 15.398 0 0 0 21.316 1.527 Q 21.5 1.062 21.533 0.938 A 0.176 0.176 0 0 0 21.54 0.9 Q 21.54 0.48 21.345 0.24 A 1.35 1.35 0 0 0 21.275 0.16 Q 21.123 0 21 0 L 20.835 0.45 A 19.779 19.779 0 0 1 20.723 0.747 Q 20.663 0.904 20.594 1.077 A 37.775 37.775 0 0 1 20.415 1.515 A 54.711 54.711 0 0 1 20.164 2.111 A 45.755 45.755 0 0 1 19.92 2.67 Q 19.68 3.21 19.53 3.39 Q 19.293 3.282 18.878 3.205 A 7.121 7.121 0 0 0 18.525 3.15 Q 17.85 3.06 17.16 3.06 L 16.74 3.06 A 2.713 2.713 0 0 0 16.587 3.064 A 2.195 2.195 0 0 0 16.35 3.09 Q 13.53 3.42 11.04 4.59 Q 8.55 5.76 6.525 7.515 Q 4.5 9.27 3.045 11.37 A 21.006 21.006 0 0 0 2.521 12.163 A 18.23 18.23 0 0 0 0.795 15.675 A 14.509 14.509 0 0 0 0.343 17.171 A 11.627 11.627 0 0 0 0 19.92 Q 0 22.95 1.875 24.645 Q 3.166 25.812 5.289 26.176 Z M 38.093 21.905 A 1.406 1.406 0 0 0 38.37 21.93 A 2.014 2.014 0 0 0 39.237 21.734 A 2.572 2.572 0 0 0 39.825 21.345 Q 40.5 20.76 41.055 19.92 A 15.059 15.059 0 0 0 41.33 19.488 A 12.97 12.97 0 0 0 41.372 19.42 A 7.347 7.347 0 0 0 41.34 20.07 A 3.684 3.684 0 0 0 41.341 20.157 A 3.021 3.021 0 0 0 42.315 22.35 Q 43.29 23.28 45.03 23.28 A 14.963 14.963 0 0 0 45.309 23.277 Q 47.383 23.239 48.93 22.62 A 11.151 11.151 0 0 0 50.271 21.982 A 8.389 8.389 0 0 0 51.69 20.985 A 13.577 13.577 0 0 0 51.997 20.707 Q 52.432 20.301 52.778 19.902 A 7.326 7.326 0 0 0 53.4 19.08 Q 53.479 18.982 53.538 18.831 A 1.715 1.715 0 0 0 53.595 18.66 Q 53.648 18.47 53.664 18.34 A 0.844 0.844 0 0 0 53.67 18.24 A 0.404 0.404 0 0 0 53.669 18.215 Q 53.667 18.173 53.655 18.15 A 0.048 0.048 0 0 0 53.61 18.12 L 53.58 18.135 A 0.069 0.069 0 0 0 53.567 18.144 Q 53.551 18.157 53.535 18.183 A 0.354 0.354 0 0 0 53.52 18.21 A 9.46 9.46 0 0 1 53.16 18.682 A 10.343 10.343 0 0 1 51.285 20.46 Q 49.95 21.45 48.435 22.02 Q 46.92 22.59 45.42 22.59 A 3.619 3.619 0 0 1 45.049 22.571 A 2.915 2.915 0 0 1 43.875 22.2 A 1.05 1.05 0 0 1 43.689 22.063 Q 43.335 21.737 43.237 21.058 A 4.01 4.01 0 0 1 43.2 20.49 Q 43.2 19.35 43.725 18 A 12.962 12.962 0 0 1 44.009 17.327 A 14.703 14.703 0 0 1 45.12 15.33 A 15.485 15.485 0 0 1 45.621 14.614 A 13.126 13.126 0 0 1 47.01 13.02 A 22.446 22.446 0 0 1 47.146 12.891 Q 48.591 11.525 49.68 10.995 A 9.982 9.982 0 0 1 50.079 10.811 Q 50.935 10.44 51.45 10.44 L 51.645 10.44 A 0.15 0.15 0 0 1 51.672 10.442 Q 51.731 10.453 51.745 10.515 A 0.2 0.2 0 0 1 51.75 10.56 A 0.43 0.43 0 0 1 51.75 10.58 Q 51.742 10.741 51.618 11.049 A 5.363 5.363 0 0 1 51.525 11.265 Q 51.3 11.76 51.075 12.36 A 3.823 3.823 0 0 0 50.929 12.838 A 2.927 2.927 0 0 0 50.85 13.5 A 4.263 4.263 0 0 0 50.867 13.885 Q 50.919 14.459 51.135 14.835 A 3.281 3.281 0 0 0 51.175 14.903 Q 51.435 15.33 51.63 15.33 Q 51.818 15.33 51.895 15.129 A 0.713 0.713 0 0 0 51.93 15 A 2.939 2.939 0 0 1 51.943 14.732 Q 51.96 14.551 51.998 14.343 A 6.565 6.565 0 0 1 52.095 13.905 Q 52.26 13.26 52.485 12.63 A 17.033 17.033 0 0 1 52.71 12.034 A 12.486 12.486 0 0 1 52.935 11.505 Q 53.111 11.118 53.223 10.96 A 0.551 0.551 0 0 1 53.28 10.89 A 0.199 0.199 0 0 0 53.326 10.819 A 0.222 0.222 0 0 0 53.34 10.74 Q 53.34 10.506 53.011 10.271 A 2.246 2.246 0 0 0 52.8 10.14 A 2.005 2.005 0 0 0 52.551 10.024 Q 52.077 9.84 51.42 9.84 A 6.618 6.618 0 0 0 50.245 9.947 A 7.933 7.933 0 0 0 48.6 10.44 A 10.873 10.873 0 0 0 48.589 10.445 A 11.566 11.566 0 0 0 45.87 12.06 Q 44.58 13.08 43.56 14.4 Q 42.54 15.72 41.94 17.175 A 8.655 8.655 0 0 0 41.788 17.571 A 8.831 8.831 0 0 1 41.587 17.952 Q 41.42 18.252 41.204 18.6 A 25.743 25.743 0 0 1 40.74 19.32 A 0.995 0.995 0 0 1 40.712 19.364 Q 40.636 19.477 40.47 19.673 A 11.649 11.649 0 0 1 40.335 19.83 Q 40.02 20.19 39.675 20.49 Q 39.46 20.678 39.273 20.748 A 0.603 0.603 0 0 1 39.06 20.79 A 0.248 0.248 0 0 1 38.84 20.66 Q 38.764 20.54 38.741 20.306 A 2.372 2.372 0 0 1 38.73 20.07 A 4.319 4.319 0 0 1 38.745 19.719 Q 38.793 19.125 39 18.39 A 20.342 20.342 0 0 1 39.069 18.151 A 18.465 18.465 0 0 1 39.615 16.56 A 27.924 27.924 0 0 1 39.773 16.17 Q 39.932 15.785 40.057 15.525 A 5.298 5.298 0 0 1 40.17 15.3 A 2.842 2.842 0 0 0 40.15 15.265 Q 40.024 15.052 39.72 14.61 Q 39.39 14.13 38.97 14.13 A 0.417 0.417 0 0 0 38.852 14.147 Q 38.513 14.246 38.26 14.932 A 4.958 4.958 0 0 0 38.13 15.345 A 12.067 12.067 0 0 0 38.1 15.458 Q 37.89 16.262 37.705 17.406 A 41.706 41.706 0 0 0 37.53 18.6 Q 37.48 18.921 37.448 19.203 A 9.34 9.34 0 0 0 37.41 19.62 Q 37.38 20.07 37.38 20.46 Q 37.38 20.964 37.475 21.292 A 1.229 1.229 0 0 0 37.59 21.57 A 0.648 0.648 0 0 0 37.813 21.799 Q 37.932 21.872 38.093 21.905 Z M 55.44 17.82 L 55.44 17.79 Q 55.11 17.64 54.81 17.505 Q 54.51 17.37 54.24 17.28 A 0.464 0.464 0 0 1 54.157 17.228 Q 54.06 17.15 54.06 17.04 A 0.52 0.52 0 0 1 54.108 16.83 Q 54.189 16.647 54.405 16.44 A 1.372 1.372 0 0 1 54.659 16.245 A 0.94 0.94 0 0 1 55.14 16.11 A 0.403 0.403 0 0 1 55.197 16.115 Q 55.259 16.124 55.347 16.15 A 2.166 2.166 0 0 1 55.41 16.17 Q 55.41 16.197 55.457 16.2 A 0.202 0.202 0 0 0 55.47 16.2 Q 55.53 13.77 55.8 11.325 A 98.941 98.941 0 0 1 56.089 8.962 A 80.459 80.459 0 0 1 56.415 6.765 A 100.268 100.268 0 0 1 56.67 5.272 Q 56.774 4.688 56.875 4.169 A 48.95 48.95 0 0 1 57.075 3.195 A 40.048 40.048 0 0 1 57.206 2.608 Q 57.43 1.648 57.57 1.32 A 41.673 41.673 0 0 0 57.717 0.959 Q 57.774 0.817 57.823 0.69 A 20.485 20.485 0 0 0 57.915 0.45 Q 58.05 0.09 58.35 0.09 Q 58.83 0.09 59.295 0.48 Q 59.76 0.87 59.76 1.2 L 59.76 1.26 A 0.583 0.583 0 0 1 60.188 1.024 A 0.833 0.833 0 0 1 60.27 1.02 A 0.808 0.808 0 0 1 60.911 1.325 A 1.28 1.28 0 0 1 61.035 1.5 A 3.476 3.476 0 0 1 61.362 2.242 A 4.221 4.221 0 0 1 61.455 2.595 Q 61.587 3.196 61.59 3.583 A 2.292 2.292 0 0 1 61.59 3.6 A 6.721 6.721 0 0 1 61.472 4.82 Q 61.367 5.388 61.169 6.003 A 11.486 11.486 0 0 1 61.11 6.18 Q 60.63 7.59 59.88 9.045 Q 59.13 10.5 58.29 11.835 Q 57.506 13.081 56.826 14.053 A 38.258 38.258 0 0 1 56.73 14.19 L 56.61 15.45 L 56.49 16.71 L 56.82 16.89 A 24.684 24.684 0 0 0 58.231 15.859 A 30.196 30.196 0 0 0 59.1 15.15 Q 60.27 14.16 61.335 13.125 A 26.333 26.333 0 0 0 62.293 12.147 Q 62.749 11.655 63.126 11.19 A 15.943 15.943 0 0 0 63.15 11.16 Q 63.19 11.12 63.23 11.107 A 0.126 0.126 0 0 1 63.27 11.1 A 0.095 0.095 0 0 1 63.312 11.108 Q 63.352 11.128 63.359 11.191 A 0.262 0.262 0 0 1 63.36 11.22 A 0.255 0.255 0 0 1 63.343 11.312 A 0.314 0.314 0 0 1 63.33 11.34 A 12.566 12.566 0 0 1 62.789 12.212 Q 62.494 12.647 62.136 13.112 A 22.13 22.13 0 0 1 61.89 13.425 Q 60.99 14.55 59.955 15.645 Q 58.92 16.74 57.9 17.58 Q 59.4 18.6 60.795 19.8 A 48.634 48.634 0 0 1 62.778 21.6 A 43.066 43.066 0 0 1 63.39 22.2 A 0.811 0.811 0 0 1 63.483 22.31 Q 63.529 22.375 63.55 22.441 A 0.377 0.377 0 0 1 63.57 22.56 A 0.549 0.549 0 0 1 63.566 22.631 Q 63.548 22.77 63.45 22.77 Q 63.415 22.77 63.4 22.759 A 0.023 0.023 0 0 1 63.39 22.74 A 42.904 42.904 0 0 0 63.075 22.51 Q 62.719 22.253 62.236 21.912 A 162.353 162.353 0 0 0 61.77 21.585 A 49.807 49.807 0 0 0 60.147 20.497 A 57.721 57.721 0 0 0 59.52 20.1 Q 59.167 19.864 58.408 19.397 A 100.203 100.203 0 0 0 58.38 19.38 A 29.879 29.879 0 0 0 57.251 18.72 A 35.086 35.086 0 0 0 56.7 18.42 L 56.61 18.42 A 0.155 0.155 0 0 0 56.588 18.422 Q 56.565 18.425 56.535 18.435 A 0.099 0.099 0 0 1 56.503 18.44 Q 56.47 18.44 56.43 18.42 L 56.43 19.11 A 19.858 19.858 0 0 0 56.473 20.447 Q 56.515 21.076 56.6 21.636 A 12.119 12.119 0 0 0 56.625 21.795 Q 56.793 22.813 56.994 23.621 A 15.746 15.746 0 0 0 57.06 23.88 A 0.086 0.086 0 0 1 57.057 23.904 Q 57.05 23.93 57.022 23.937 A 0.088 0.088 0 0 1 57 23.94 A 0.746 0.746 0 0 1 56.473 23.72 Q 56.327 23.581 56.205 23.355 A 3.757 3.757 0 0 1 55.974 22.825 Q 55.875 22.545 55.799 22.215 A 7.594 7.594 0 0 1 55.725 21.855 A 15.149 15.149 0 0 1 55.56 20.653 A 18.615 18.615 0 0 1 55.5 19.875 Q 55.44 18.81 55.44 17.82 Z M 73.261 23.012 A 2.659 2.659 0 0 0 74.07 23.13 Q 74.455 23.13 74.763 23.053 A 1.748 1.748 0 0 0 75.24 22.86 A 7.866 7.866 0 0 0 75.395 22.765 Q 75.707 22.568 75.78 22.47 Q 75.93 22.32 75.81 22.29 Q 75.714 22.266 75.481 22.358 A 2.731 2.731 0 0 0 75.36 22.41 L 74.91 22.59 Q 74.61 22.71 74.28 22.71 Q 73.95 22.71 73.605 22.515 A 1.143 1.143 0 0 1 73.402 22.367 Q 73.178 22.165 72.99 21.81 A 3.762 3.762 0 0 1 72.811 21.427 Q 72.682 21.108 72.587 20.725 A 7.909 7.909 0 0 1 72.435 19.935 A 13.422 13.422 0 0 1 72.414 19.78 Q 72.342 19.234 72.306 18.619 A 22.457 22.457 0 0 1 72.27 17.31 A 11.133 11.133 0 0 1 72.285 16.725 Q 72.3 16.44 72.3 16.14 Q 73.26 14.16 74.13 12.015 A 32.654 32.654 0 0 0 74.636 10.688 A 27.502 27.502 0 0 0 75.48 7.86 Q 77.94 7.38 80.37 6.75 A 75.816 75.816 0 0 0 80.526 6.709 Q 81.692 6.404 82.732 6.092 A 46.332 46.332 0 0 0 84.69 5.46 A 3.275 3.275 0 0 0 84.818 5.414 Q 84.959 5.361 85.14 5.28 Q 85.326 5.198 85.455 5.122 A 1.544 1.544 0 0 0 85.56 5.055 A 0.895 0.895 0 0 0 85.563 5.053 Q 85.708 4.951 85.5 5.01 A 928.694 928.694 0 0 0 84.071 5.329 A 1272.113 1272.113 0 0 0 82.485 5.685 Q 80.82 6.06 79.065 6.405 A 75.319 75.319 0 0 1 78.194 6.571 A 67.817 67.817 0 0 1 75.66 6.99 A 14.241 14.241 0 0 0 75.854 5.799 A 10.635 10.635 0 0 0 75.93 4.56 A 7.343 7.343 0 0 0 75.889 3.769 A 5.75 5.75 0 0 0 75.66 2.655 A 3.877 3.877 0 0 0 75.587 2.446 A 3.234 3.234 0 0 0 74.79 1.23 A 0.891 0.891 0 0 0 74.683 1.078 Q 74.601 0.984 74.485 0.898 A 1.912 1.912 0 0 0 74.25 0.75 A 2.882 2.882 0 0 0 73.909 0.593 A 2.141 2.141 0 0 0 73.5 0.48 Q 73.207 0.435 73.058 0.627 A 0.58 0.58 0 0 0 72.975 0.78 Q 72.84 1.14 72.69 1.74 A 82.779 82.779 0 0 0 72.394 3.097 A 96.298 96.298 0 0 0 72.105 4.53 Q 71.82 6 71.58 7.5 Q 69.87 7.68 68.775 7.8 Q 67.68 7.92 66.78 7.92 A 11.447 11.447 0 0 1 66.596 7.919 A 9.805 9.805 0 0 1 66.21 7.905 A 11.583 11.583 0 0 1 66.038 7.894 A 13.651 13.651 0 0 1 65.64 7.86 Q 65.532 7.833 65.631 8.098 A 2.118 2.118 0 0 0 65.655 8.16 A 2.373 2.373 0 0 0 65.719 8.303 A 2.621 2.621 0 0 0 66.03 8.79 A 2.677 2.677 0 0 0 66.091 8.863 Q 66.286 9.09 66.39 9.09 Q 67.26 9.09 68.565 8.94 Q 69.87 8.79 71.43 8.55 Q 71.22 9.99 71.07 11.355 Q 70.92 12.72 70.86 13.86 Q 70.83 14.25 70.8 14.805 Q 70.77 15.36 70.77 16.02 Q 70.77 17.13 70.89 18.375 A 12.51 12.51 0 0 0 70.964 18.987 A 10.729 10.729 0 0 0 71.355 20.7 Q 71.7 21.78 72.36 22.455 A 2.156 2.156 0 0 0 73.261 23.012 Z M 35.205 23.738 A 2.588 2.588 0 0 0 35.73 23.79 A 3.334 3.334 0 0 0 35.77 23.79 Q 36.523 23.781 37.02 23.43 A 12.666 12.666 0 0 0 37.148 23.339 Q 37.446 23.123 37.579 22.996 A 0.797 0.797 0 0 0 37.65 22.92 Q 37.83 22.68 37.59 22.68 Q 37.466 22.68 37.313 22.751 A 1.35 1.35 0 0 0 37.17 22.83 Q 37.013 22.898 36.779 22.999 A 203.438 203.438 0 0 0 36.615 23.07 A 1.739 1.739 0 0 1 36.322 23.167 A 2.041 2.041 0 0 1 35.85 23.22 A 1.29 1.29 0 0 1 35.777 23.218 Q 35.42 23.198 35.025 22.98 A 1.446 1.446 0 0 1 34.735 22.765 Q 34.594 22.633 34.462 22.451 A 3.433 3.433 0 0 1 34.23 22.08 Q 33.81 21.3 33.615 20.25 A 11.029 11.029 0 0 1 33.489 19.367 A 13.633 13.633 0 0 1 33.42 17.97 A 19.254 19.254 0 0 1 33.458 16.775 A 23.084 23.084 0 0 1 33.69 14.67 A 22.247 22.247 0 0 0 33.987 14.268 A 24.403 24.403 0 0 0 35.865 11.19 A 26.363 26.363 0 0 0 36.015 10.895 A 23.831 23.831 0 0 0 37.44 7.395 A 16.67 16.67 0 0 0 37.554 7.019 Q 38.04 5.337 38.04 3.96 Q 38.04 2.28 37.23 1.35 A 1.536 1.536 0 0 0 36.997 1.104 A 2.126 2.126 0 0 0 36.735 0.915 A 2.995 2.995 0 0 0 36.462 0.764 A 2.319 2.319 0 0 0 36.12 0.63 Q 35.815 0.536 35.638 0.736 A 0.62 0.62 0 0 0 35.55 0.87 A 8.376 8.376 0 0 0 35.532 0.906 Q 35.358 1.258 35.13 1.8 A 80.043 80.043 0 0 0 34.739 3.005 A 93.797 93.797 0 0 0 33.9 5.82 Q 33.3 7.95 32.835 10.02 Q 32.37 12.09 32.13 13.8 Q 32.01 14.61 31.95 15.45 Q 31.89 16.29 31.89 17.13 A 15.987 15.987 0 0 0 31.9 17.698 A 14.028 14.028 0 0 0 32.175 20.04 Q 32.46 21.42 33.135 22.38 Q 33.81 23.34 34.95 23.67 A 2.239 2.239 0 0 0 35.205 23.738 Z M 99.195 23.738 A 2.588 2.588 0 0 0 99.72 23.79 A 3.334 3.334 0 0 0 99.76 23.79 Q 100.513 23.781 101.01 23.43 A 12.666 12.666 0 0 0 101.138 23.339 Q 101.436 23.123 101.569 22.996 A 0.797 0.797 0 0 0 101.64 22.92 Q 101.82 22.68 101.58 22.68 Q 101.456 22.68 101.303 22.751 A 1.35 1.35 0 0 0 101.16 22.83 Q 101.003 22.898 100.769 22.999 A 203.438 203.438 0 0 0 100.605 23.07 A 1.739 1.739 0 0 1 100.312 23.167 A 2.041 2.041 0 0 1 99.84 23.22 A 1.29 1.29 0 0 1 99.767 23.218 Q 99.41 23.198 99.015 22.98 A 1.446 1.446 0 0 1 98.725 22.765 Q 98.584 22.633 98.452 22.451 A 3.433 3.433 0 0 1 98.22 22.08 Q 97.8 21.3 97.605 20.25 A 11.029 11.029 0 0 1 97.479 19.367 A 13.633 13.633 0 0 1 97.41 17.97 A 19.254 19.254 0 0 1 97.448 16.775 A 23.084 23.084 0 0 1 97.68 14.67 A 22.247 22.247 0 0 0 97.977 14.268 A 24.403 24.403 0 0 0 99.855 11.19 A 26.363 26.363 0 0 0 100.005 10.895 A 23.831 23.831 0 0 0 101.43 7.395 A 16.67 16.67 0 0 0 101.544 7.019 Q 102.03 5.337 102.03 3.96 Q 102.03 2.28 101.22 1.35 A 1.536 1.536 0 0 0 100.987 1.104 A 2.126 2.126 0 0 0 100.725 0.915 A 2.995 2.995 0 0 0 100.452 0.764 A 2.319 2.319 0 0 0 100.11 0.63 Q 99.805 0.536 99.628 0.736 A 0.62 0.62 0 0 0 99.54 0.87 A 8.376 8.376 0 0 0 99.522 0.906 Q 99.348 1.258 99.12 1.8 A 80.043 80.043 0 0 0 98.729 3.005 A 93.797 93.797 0 0 0 97.89 5.82 Q 97.29 7.95 96.825 10.02 Q 96.36 12.09 96.12 13.8 Q 96 14.61 95.94 15.45 Q 95.88 16.29 95.88 17.13 A 15.987 15.987 0 0 0 95.89 17.698 A 14.028 14.028 0 0 0 96.165 20.04 Q 96.45 21.42 97.125 22.38 Q 97.8 23.34 98.94 23.67 A 2.239 2.239 0 0 0 99.195 23.738 Z M 79.5 12.33 L 79.95 11.43 Q 80.13 11.1 80.37 10.965 Q 80.61 10.83 80.82 10.83 Q 81.15 10.83 81.405 10.935 Q 81.66 11.04 81.87 11.19 A 9.066 9.066 0 0 1 82.39 10.973 A 10.448 10.448 0 0 1 82.575 10.905 A 4.36 4.36 0 0 1 83.129 10.745 A 3.834 3.834 0 0 1 83.31 10.71 Q 84.45 10.29 85.68 10.035 Q 86.91 9.78 88.11 9.78 A 5.236 5.236 0 0 1 89.245 9.908 A 5.96 5.96 0 0 1 89.46 9.96 Q 90.15 10.14 90.15 10.53 A 0.096 0.096 0 0 1 90.091 10.62 Q 90.031 10.65 89.91 10.65 A 4.61 4.61 0 0 1 89.464 10.627 Q 89.161 10.598 88.815 10.53 Q 88.2 10.41 87.6 10.41 A 13.623 13.623 0 0 0 86.421 10.46 A 12.14 12.14 0 0 0 86.16 10.485 A 10.189 10.189 0 0 0 85.293 10.616 A 8.572 8.572 0 0 0 84.87 10.71 A 1.67 1.67 0 0 1 85.495 11.19 A 2.178 2.178 0 0 1 85.665 11.43 A 1.999 1.999 0 0 1 85.906 12.028 Q 85.98 12.342 85.98 12.72 A 4.359 4.359 0 0 1 85.923 13.396 Q 85.87 13.735 85.766 14.115 A 9.606 9.606 0 0 1 85.575 14.73 A 14.662 14.662 0 0 1 84.927 16.291 A 17.72 17.72 0 0 1 84.495 17.13 Q 83.82 18.36 82.95 19.425 A 10.767 10.767 0 0 1 82.065 20.389 A 8.109 8.109 0 0 1 81.15 21.15 A 4.233 4.233 0 0 1 80.489 21.539 Q 79.907 21.81 79.35 21.81 A 2.609 2.609 0 0 1 78.731 21.741 A 1.632 1.632 0 0 1 77.76 21.105 Q 77.25 20.4 77.25 19.38 A 5.857 5.857 0 0 1 77.32 18.512 Q 77.387 18.067 77.518 17.562 A 13.709 13.709 0 0 1 77.76 16.74 A 42.944 42.944 0 0 1 78.555 14.512 A 37.242 37.242 0 0 1 78.84 13.8 Q 78.33 14.13 77.79 14.4 Q 77.4 14.595 77.072 14.649 A 1.486 1.486 0 0 1 76.83 14.67 A 0.951 0.951 0 0 1 76.674 14.658 Q 76.592 14.644 76.527 14.615 A 0.394 0.394 0 0 1 76.395 14.52 A 0.556 0.556 0 0 1 76.303 14.383 A 0.452 0.452 0 0 1 76.26 14.19 Q 76.26 14.04 76.35 13.74 A 1.539 1.539 0 0 1 76.555 13.316 A 1.876 1.876 0 0 1 76.665 13.17 A 0.786 0.786 0 0 1 76.872 12.991 A 0.678 0.678 0 0 1 77.22 12.9 A 0.235 0.235 0 0 1 77.264 12.904 Q 77.34 12.918 77.34 12.99 Q 77.34 13.01 77.333 13.023 A 0.044 0.044 0 0 1 77.325 13.035 A 0.047 0.047 0 0 0 77.314 13.054 Q 77.311 13.061 77.311 13.07 A 0.105 0.105 0 0 0 77.31 13.08 Q 77.28 13.14 77.28 13.2 Q 77.28 13.308 77.402 13.319 A 0.323 0.323 0 0 0 77.43 13.32 A 0.701 0.701 0 0 0 77.501 13.316 Q 77.535 13.313 77.573 13.306 A 1.636 1.636 0 0 0 77.655 13.29 Q 77.79 13.26 77.94 13.17 A 10.088 10.088 0 0 0 78.178 13.047 Q 78.386 12.936 78.63 12.795 Q 79.02 12.57 79.5 12.33 Z M 56.88 13.14 A 64.953 64.953 0 0 0 58.23 10.825 A 74.67 74.67 0 0 0 58.68 10.005 Q 59.58 8.34 60.18 6.72 A 10.952 10.952 0 0 0 60.569 5.453 Q 60.727 4.786 60.767 4.178 A 6.118 6.118 0 0 0 60.78 3.78 A 3.76 3.76 0 0 0 60.688 2.932 A 3.219 3.219 0 0 0 60.54 2.46 Q 60.3 1.86 59.76 1.47 Q 59.73 1.47 59.7 1.44 Q 58.89 3.84 58.11 6.87 Q 57.33 9.9 56.88 13.14 Z M 79.68 21.18 A 1.584 1.584 0 0 0 80.301 21.046 Q 80.527 20.951 80.758 20.787 A 3.422 3.422 0 0 0 80.985 20.61 A 7.647 7.647 0 0 0 81.656 19.965 Q 81.99 19.605 82.32 19.17 Q 82.98 18.3 83.49 17.37 Q 83.725 16.959 84.031 16.262 A 23.673 23.673 0 0 0 84.045 16.23 A 11.328 11.328 0 0 0 84.527 14.901 A 12.583 12.583 0 0 0 84.585 14.7 A 6.813 6.813 0 0 0 84.739 14.02 Q 84.799 13.667 84.808 13.347 A 3.991 3.991 0 0 0 84.81 13.23 A 2.335 2.335 0 0 0 84.768 12.777 Q 84.707 12.466 84.555 12.225 A 0.793 0.793 0 0 0 84.146 11.903 Q 84.003 11.85 83.823 11.831 A 2.015 2.015 0 0 0 83.61 11.82 A 1.6 1.6 0 0 0 83.362 11.841 Q 83.109 11.881 82.781 11.996 A 5.168 5.168 0 0 0 82.77 12 A 18.199 18.199 0 0 0 82.109 12.248 A 22.228 22.228 0 0 0 81.69 12.42 Q 81.57 12.54 81.465 12.675 Q 81.36 12.81 81.3 12.96 A 30.499 30.499 0 0 0 80.659 14.212 A 38.516 38.516 0 0 0 80.16 15.285 A 23.726 23.726 0 0 0 79.469 17.003 A 20.267 20.267 0 0 0 79.215 17.76 A 9.823 9.823 0 0 0 78.987 18.618 Q 78.84 19.298 78.84 19.86 A 3.104 3.104 0 0 0 78.87 20.309 Q 78.949 20.849 79.242 21.054 A 0.744 0.744 0 0 0 79.68 21.18 Z M 165.84 21.18 A 1.584 1.584 0 0 0 166.461 21.046 Q 166.687 20.951 166.918 20.787 A 3.422 3.422 0 0 0 167.145 20.61 A 7.647 7.647 0 0 0 167.816 19.965 Q 168.15 19.605 168.48 19.17 Q 169.14 18.3 169.65 17.37 Q 169.885 16.959 170.191 16.262 A 23.673 23.673 0 0 0 170.205 16.23 A 11.328 11.328 0 0 0 170.687 14.901 A 12.583 12.583 0 0 0 170.745 14.7 A 6.813 6.813 0 0 0 170.899 14.02 Q 170.959 13.667 170.968 13.347 A 3.991 3.991 0 0 0 170.97 13.23 A 2.335 2.335 0 0 0 170.928 12.777 Q 170.867 12.466 170.715 12.225 A 0.793 0.793 0 0 0 170.306 11.903 Q 170.163 11.85 169.983 11.831 A 2.015 2.015 0 0 0 169.77 11.82 A 1.6 1.6 0 0 0 169.522 11.841 Q 169.269 11.881 168.941 11.996 A 5.168 5.168 0 0 0 168.93 12 A 18.199 18.199 0 0 0 168.269 12.248 A 22.228 22.228 0 0 0 167.85 12.42 Q 167.73 12.54 167.625 12.675 Q 167.52 12.81 167.46 12.96 A 30.499 30.499 0 0 0 166.819 14.212 A 38.516 38.516 0 0 0 166.32 15.285 A 23.726 23.726 0 0 0 165.629 17.003 A 20.267 20.267 0 0 0 165.375 17.76 A 9.823 9.823 0 0 0 165.147 18.618 Q 165 19.298 165 19.86 A 3.104 3.104 0 0 0 165.03 20.309 Q 165.109 20.849 165.402 21.054 A 0.744 0.744 0 0 0 165.84 21.18 Z M 33.9 13.38 Q 34.86 11.88 35.655 10.215 A 24.975 24.975 0 0 0 36.661 7.802 A 21.725 21.725 0 0 0 36.945 6.945 Q 37.44 5.34 37.44 4.08 A 5.444 5.444 0 0 0 37.408 3.476 A 4.567 4.567 0 0 0 37.365 3.18 A 2.663 2.663 0 0 0 37.239 2.713 A 2.207 2.207 0 0 0 37.11 2.43 Q 36.09 4.98 35.235 7.845 A 52.983 52.983 0 0 0 34.2 11.863 A 45.803 45.803 0 0 0 33.9 13.38 Z M 97.89 13.38 Q 98.85 11.88 99.645 10.215 A 24.975 24.975 0 0 0 100.651 7.802 A 21.725 21.725 0 0 0 100.935 6.945 Q 101.43 5.34 101.43 4.08 A 5.444 5.444 0 0 0 101.398 3.476 A 4.567 4.567 0 0 0 101.355 3.18 A 2.663 2.663 0 0 0 101.229 2.713 A 2.207 2.207 0 0 0 101.1 2.43 Q 100.08 4.98 99.225 7.845 A 52.983 52.983 0 0 0 98.19 11.863 A 45.803 45.803 0 0 0 97.89 13.38 Z M 109.32 18.66 A 0.984 0.984 0 0 0 109.612 18.611 Q 109.878 18.528 110.211 18.304 A 4.56 4.56 0 0 0 110.385 18.18 A 8.571 8.571 0 0 0 111.003 17.671 Q 111.31 17.394 111.63 17.061 A 14.617 14.617 0 0 0 111.735 16.95 Q 112.44 16.2 113.115 15.36 A 22.046 22.046 0 0 0 113.745 14.539 A 17.14 17.14 0 0 0 114.285 13.755 Q 114.78 12.99 114.99 12.51 A 2.037 2.037 0 0 0 114.476 12.581 Q 114.25 12.64 114.004 12.748 A 4.637 4.637 0 0 0 113.61 12.945 A 9.388 9.388 0 0 0 112.723 13.51 A 12.058 12.058 0 0 0 112.02 14.055 Q 111.21 14.73 110.52 15.525 Q 109.83 16.32 109.41 17.07 A 4.512 4.512 0 0 0 109.189 17.518 Q 109.096 17.739 109.046 17.938 A 1.755 1.755 0 0 0 108.99 18.36 Q 108.99 18.66 109.32 18.66 Z M 72.39 14.58 Q 73.11 12.93 73.74 11.25 A 31.489 31.489 0 0 0 74.493 8.997 A 26.713 26.713 0 0 0 74.76 8.01 Q 74.37 8.07 74.01 8.13 L 73.29 8.25 Q 72.99 9.87 72.765 11.475 A 81.209 81.209 0 0 0 72.47 13.823 A 72.807 72.807 0 0 0 72.39 14.58 Z M 73.5 7.29 L 73.92 7.23 L 74.97 7.11 A 14.761 14.761 0 0 0 75.141 6.19 A 12.568 12.568 0 0 0 75.195 5.79 Q 75.27 5.16 75.27 4.59 A 6.946 6.946 0 0 0 75.204 3.602 Q 75.132 3.103 74.982 2.69 A 3.265 3.265 0 0 0 74.7 2.1 Q 74.37 3.3 74.07 4.62 Q 73.77 5.94 73.5 7.29 Z M 103.26 15.57 Q 104.31 15 105.135 14.205 A 3.15 3.15 0 0 0 105.613 13.629 A 2.111 2.111 0 0 0 105.96 12.48 A 0.518 0.518 0 0 0 105.885 12.221 Q 105.788 12.052 105.566 11.879 A 2.405 2.405 0 0 0 105.465 11.805 A 4.57 4.57 0 0 0 104.801 11.424 A 5.768 5.768 0 0 0 104.31 11.22 A 16.432 16.432 0 0 0 103.794 12.859 A 18.541 18.541 0 0 0 103.695 13.26 A 25.807 25.807 0 0 0 103.38 14.816 A 30.58 30.58 0 0 0 103.26 15.57 Z M 185.04 15.57 Q 186.09 15 186.915 14.205 A 3.15 3.15 0 0 0 187.393 13.629 A 2.111 2.111 0 0 0 187.74 12.48 A 0.518 0.518 0 0 0 187.665 12.221 Q 187.568 12.052 187.346 11.879 A 2.405 2.405 0 0 0 187.245 11.805 A 4.57 4.57 0 0 0 186.581 11.424 A 5.768 5.768 0 0 0 186.09 11.22 A 16.432 16.432 0 0 0 185.574 12.859 A 18.541 18.541 0 0 0 185.475 13.26 A 25.807 25.807 0 0 0 185.16 14.816 A 30.58 30.58 0 0 0 185.04 15.57 Z M 39.753 12.839 A 0.962 0.962 0 0 0 39.99 12.87 A 0.734 0.734 0 0 0 40.084 12.864 Q 40.251 12.843 40.365 12.741 A 0.58 0.58 0 0 0 40.5 12.555 A 5.708 5.708 0 0 0 40.542 12.464 Q 40.671 12.181 40.8 11.82 A 1.65 1.65 0 0 1 40.843 11.712 A 1.326 1.326 0 0 1 41.28 11.16 Q 41.473 11.031 41.528 10.933 A 0.151 0.151 0 0 0 41.55 10.86 A 0.119 0.119 0 0 0 41.513 10.769 Q 41.449 10.71 41.28 10.71 A 1.709 1.709 0 0 0 40.715 10.81 A 2.398 2.398 0 0 0 40.29 11.01 A 3.564 3.564 0 0 0 39.989 11.208 A 2.91 2.91 0 0 0 39.45 11.715 A 2.821 2.821 0 0 0 39.365 11.824 Q 39.12 12.157 39.12 12.39 Q 39.12 12.471 39.155 12.534 A 0.301 0.301 0 0 0 39.24 12.63 Q 39.42 12.72 39.615 12.795 A 1.22 1.22 0 0 0 39.753 12.839 Z" vector-effect="non-scaling-stroke"/></g></svg>